<svg width="185" height="187" viewBox="0 0 185 187" fill="none" xmlns="http://www.w3.org/2000/svg">
<path d="M50.698 91.745C51.623 85.652 55.129 81.678 60.931 79.351C53.166 75.618 49.496 69.674 51.928 61.171C53.619 55.256 58.071 52.03 64.166 51.21C70.128 50.408 74.682 53.306 79.389 60.851C81.652 55.149 85.646 51.601 91.769 50.677C93.069 49.996 94.369 49.998 95.669 50.677C101.766 51.606 105.751 55.107 108.047 60.893C111.609 53.387 117.304 49.753 125.62 51.67C131.465 53.017 135.43 57.904 136.233 63.992C137.039 70.1 133.973 75.058 126.63 79.35C132.105 81.414 135.405 85.326 136.813 91.066C138.953 83.78 144.799 79.782 151.638 80.734C158.025 81.623 162.792 87.239 162.751 93.825C162.711 100.289 157.865 105.85 151.562 106.667C144.72 107.554 138.817 103.508 136.838 96.298C135.371 102.044 132.143 105.968 126.61 108.031C133.781 111.444 137.36 116.8 135.998 124.718C135.003 130.499 130.493 134.83 124.745 136.015C121.163 136.753 117.806 136.151 114.658 134.376C111.573 132.636 109.52 129.958 108.111 126.449C105.977 132.1 102.105 135.359 96.293 136.797C99.966 137.742 102.68 139.532 104.617 142.427C106.549 145.316 107.186 148.519 106.622 151.897C105.544 158.363 99.935 162.866 93.303 162.727C87.046 162.596 81.613 157.782 80.757 151.611C79.809 144.775 83.795 138.945 91.078 136.79C85.386 135.373 81.47 132.14 79.379 126.56C75.618 134.215 69.791 137.863 61.394 135.565C55.347 133.909 51.839 129.48 51.266 123.302C50.592 116.037 54.201 111.063 60.994 108.07C55.157 105.754 51.621 101.753 50.7 95.644C50.017 94.344 50.018 93.045 50.698 91.745Z" fill="#389CDE"/>
<path d="M91.166 50.064C84.491 48.56 80.062 42.597 80.778 36.073C81.509 29.405 87.072 24.376 93.717 24.376C100.362 24.376 105.925 29.405 106.656 36.073C107.371 42.597 102.943 48.561 96.268 50.064C94.567 50.731 92.867 50.731 91.166 50.064Z" fill="#389CDE"/>
<path d="M50.085 96.247C48.581 102.922 42.618 107.351 36.094 106.635C29.426 105.904 24.397 100.341 24.397 93.696C24.397 87.051 29.426 81.488 36.094 80.757C42.618 80.042 48.582 84.47 50.085 91.145C50.752 92.846 50.752 94.547 50.085 96.247Z" fill="#389CDE"/>
<path d="M149.924 109.689C156.644 109.871 162.048 115.485 161.869 122.096C161.687 128.815 156.073 134.22 149.462 134.041C142.743 133.859 137.338 128.245 137.517 121.634C137.699 114.915 143.313 109.51 149.924 109.689Z" fill="#389CDE"/>
<path d="M109.71 149.442C109.892 142.722 115.506 137.318 122.117 137.497C128.837 137.679 134.242 143.293 134.063 149.904C133.881 156.623 128.267 162.029 121.656 161.849C114.935 161.667 109.53 156.053 109.71 149.442Z" fill="#389CDE"/>
<path d="M65.577 161.79C58.887 161.813 53.418 156.35 53.431 149.656C53.444 142.957 58.93 137.506 65.61 137.555C72.251 137.604 77.607 142.954 77.666 149.599C77.725 156.275 72.279 161.767 65.577 161.79Z" fill="#389CDE"/>
<path d="M161.811 65.456C161.869 72.133 156.422 77.624 149.721 77.645C143.03 77.666 137.562 72.202 137.577 65.51C137.591 58.877 142.921 53.504 149.577 53.411C156.243 53.317 161.753 58.742 161.811 65.456Z" fill="#389CDE"/>
<path d="M121.855 49.318C115.159 49.308 109.887 43.969 109.926 37.238C109.964 30.636 115.278 25.389 121.916 25.4C128.612 25.41 133.884 30.749 133.845 37.48C133.807 44.082 128.493 49.329 121.855 49.318Z" fill="#389CDE"/>
<path d="M37.32 133.824C30.633 133.804 25.372 128.451 25.42 121.714C25.468 115.119 30.795 109.885 37.439 109.905C44.126 109.925 49.387 115.278 49.338 122.015C49.292 128.61 43.964 133.844 37.32 133.824Z" fill="#389CDE"/>
<path d="M53.615 37.196C53.667 30.635 59.039 25.3881 65.666 25.4261C72.309 25.4641 77.566 30.885 77.481 37.613C77.399 44.15 71.982 49.3611 65.34 49.2931C58.792 49.2251 53.562 43.831 53.615 37.196Z" fill="#389CDE"/>
<path d="M49.313 65.583C49.295 72.173 43.974 77.464 37.369 77.461C30.698 77.458 25.399 72.09 25.446 65.382C25.492 58.817 30.856 53.562 37.48 53.594C44.057 53.626 49.331 58.969 49.313 65.583Z" fill="#389CDE"/>
<path d="M140.992 149.683C140.988 145.189 144.415 141.368 148.781 141C153.394 140.61 157.389 143.635 158.322 148.035C158.669 149.669 157.564 150.529 156.761 151.366C154.657 153.559 152.636 155.851 150.193 157.72C149.475 158.27 148.873 158.415 148.083 158.27C143.992 157.518 140.995 153.888 140.992 149.683Z" fill="#389CDE"/>
<path d="M45.96 149.922C45.805 152.634 44.654 155.036 42.207 156.727C39.442 158.639 38.091 158.507 35.731 156.147C33.906 154.323 32.118 152.46 30.244 150.687C28.952 149.465 28.75 148.171 29.405 146.552C30.957 142.717 34.91 140.508 38.978 141.295C43.055 142.085 45.984 145.615 45.96 149.922Z" fill="#389CDE"/>
<path d="M149.466 45.938C145.196 45.78 141.837 42.698 141.192 38.347C140.621 34.493 143.158 30.575 146.988 29.226C148.403 28.728 149.49 29.011 150.504 30.036C152.74 32.298 154.962 34.574 157.263 36.769C158.125 37.591 158.238 38.449 157.986 39.502C157.091 43.239 153.34 46.081 149.466 45.938Z" fill="#389CDE"/>
<path d="M45.763 37.314C45.78 41.487 42.749 45.098 38.756 45.662C34.399 46.278 30.529 43.803 29.279 39.685C28.999 38.762 29.18 38.193 29.82 37.467C32.22 34.741 34.812 32.223 37.501 29.788C38.229 29.129 38.809 28.986 39.722 29.266C43.345 30.381 45.748 33.531 45.763 37.314Z" fill="#389CDE"/>
<path d="M93.507 178.924C91.564 178.659 89.179 179.292 86.808 178.621C86.045 178.405 85.856 178.2 85.88 177.48C86.014 173.451 89.574 170.026 93.691 170.006C97.8 169.986 101.341 173.357 101.555 177.426C101.631 178.881 100.551 178.854 99.696 178.896C97.776 178.988 95.849 178.924 93.507 178.924Z" fill="#389CDE"/>
<path d="M178.945 93.49C178.945 95.77 178.977 97.634 178.936 99.497C178.893 101.458 178.575 101.705 176.733 101.405C172.745 100.754 169.88 97.37 170.029 93.487C170.181 89.516 173.151 86.362 177.144 85.9C178.009 85.8 178.409 85.858 178.679 86.965C179.246 89.296 178.665 91.607 178.945 93.49Z" fill="#389CDE"/>
<path d="M93.718 8.82896C95.875 8.82896 98.035 8.888 100.189 8.804C101.233 8.763 101.362 9.18501 101.275 10.056C100.903 13.795 97.497 16.803 93.628 16.767C89.85 16.731 86.525 13.724 86.16 10.057C86.073 9.18499 86.207 8.76497 87.248 8.80497C89.401 8.88797 91.561 8.82896 93.718 8.82896Z" fill="#389CDE"/>
<path d="M8.85001 93.578C8.85001 91.481 8.891 89.382 8.831 87.287C8.804 86.365 9.04 86.039 10.017 86.126C13.726 86.456 16.799 89.866 16.788 93.726C16.776 97.581 13.65 101.004 9.95999 101.269C9.11099 101.33 8.80299 101.141 8.82999 100.229C8.89399 98.013 8.85001 95.795 8.85001 93.578Z" fill="#389CDE"/>
<path d="M126.28 172.6C122.674 174.165 119.056 175.257 115.417 176.289C116.017 171.5 121.761 169.427 126.28 172.6Z" fill="#010200"/>
<path d="M176.329 115.31C175.281 119.066 174.188 122.649 172.65 126.142C169.011 121.876 172.121 115.888 176.329 115.31Z" fill="#010401"/>
<path d="M172.67 61.388C174.033 64.795 175.316 68.227 176.137 71.905C171.289 70.652 169.568 65.174 172.67 61.388Z" fill="#020502"/>
<path d="M71.995 176.13C68.283 175.317 64.846 174.029 61.46 172.652C65 169.508 70.444 171.19 71.995 176.13Z" fill="#020502"/>
<path d="M11.452 115.75C15.488 117.347 16.86 121.227 14.779 125.421C13.316 122.23 12.399 119.026 11.452 115.75Z" fill="#010501"/>
<path d="M115.755 11.454C119.038 12.309 122.192 13.342 125.339 14.67C121.691 16.977 117.459 15.54 115.755 11.454Z" fill="#010501"/>
<path d="M11.585 71.597C12.47 68.172 13.546 65.132 14.764 62.005C16.824 65.927 15.61 69.753 11.585 71.597Z" fill="#010501"/>
<path d="M71.603 11.549C69.862 15.547 66.015 16.795 62.026 14.756C65.178 13.473 68.261 12.464 71.603 11.549Z" fill="#010501"/>
<path d="M101.496 178.659C102.197 174.324 99.2521 170.241 94.9171 169.539C90.5821 168.838 86.499 171.783 85.7973 176.118C85.0956 180.453 88.041 184.536 92.376 185.238C96.711 185.94 100.794 182.994 101.496 178.659Z" fill="#389CDE"/>
<path d="M96.5973 16.1434C100.657 14.4712 102.593 9.82426 100.921 5.76414C99.249 1.70402 94.602 -0.231829 90.5419 1.44035C86.4817 3.11252 84.546 7.7595 86.2181 11.8196C87.8903 15.8797 92.5372 17.8155 96.5973 16.1434Z" fill="#389CDE"/>
<path d="M65.549 16.419C69.9402 16.419 73.5 12.8592 73.5 8.46802C73.5 4.07681 69.9402 0.517033 65.549 0.517033C61.1578 0.517033 57.598 4.07681 57.598 8.46802C57.598 12.8592 61.1578 16.419 65.549 16.419Z" fill="#389CDE"/>
<path d="M121.886 16.419C126.277 16.419 129.837 12.8592 129.837 8.46802C129.837 4.07681 126.277 0.517033 121.886 0.517033C117.495 0.517033 113.935 4.07681 113.935 8.46802C113.935 12.8592 117.495 16.419 121.886 16.419Z" fill="#389CDE"/>
<path d="M73.2977 180.236C74.3099 175.963 71.6664 171.678 67.3933 170.666C63.1202 169.654 58.8356 172.298 57.8235 176.571C56.8113 180.844 59.4548 185.128 63.7279 186.141C68.001 187.153 72.2855 184.509 73.2977 180.236Z" fill="#389CDE"/>
<path d="M129.633 180.234C130.645 175.961 128.001 171.677 123.728 170.664C119.455 169.652 115.171 172.296 114.158 176.569C113.146 180.842 115.79 185.127 120.063 186.139C124.336 187.151 128.62 184.507 129.633 180.234Z" fill="#389CDE"/>
<path d="M176.329 72.105C180.72 72.105 184.28 68.5452 184.28 64.154C184.28 59.7628 180.72 56.203 176.329 56.203C171.938 56.203 168.378 59.7628 168.378 64.154C168.378 68.5452 171.938 72.105 176.329 72.105Z" fill="#389CDE"/>
<path d="M176.329 129.816C180.72 129.816 184.28 126.256 184.28 121.865C184.28 117.474 180.72 113.914 176.329 113.914C171.938 113.914 168.378 117.474 168.378 121.865C168.378 126.256 171.938 129.816 176.329 129.816Z" fill="#389CDE"/>
<path d="M181.943 99.1111C185.048 96.0061 185.048 90.9718 181.943 87.8668C178.838 84.7618 173.804 84.7618 170.699 87.8668C167.594 90.9718 167.594 96.0061 170.699 99.1111C173.804 102.216 178.838 102.216 181.943 99.1111Z" fill="#389CDE"/>
<path d="M8.827 72.105C13.2182 72.105 16.778 68.5452 16.778 64.154C16.778 59.7628 13.2182 56.203 8.827 56.203C4.43578 56.203 0.876007 59.7628 0.876007 64.154C0.876007 68.5452 4.43578 72.105 8.827 72.105Z" fill="#389CDE"/>
<path d="M8.827 129.816C13.2182 129.816 16.778 126.256 16.778 121.865C16.778 117.474 13.2182 113.914 8.827 113.914C4.43578 113.914 0.876007 117.474 0.876007 121.865C0.876007 126.256 4.43578 129.816 8.827 129.816Z" fill="#389CDE"/>
<path d="M36.583 158.384C41.4812 158.384 45.452 154.413 45.452 149.515C45.452 144.617 41.4812 140.646 36.583 140.646C31.6848 140.646 27.714 144.617 27.714 149.515C27.714 154.413 31.6848 158.384 36.583 158.384Z" fill="#389CDE"/>
<path d="M149.693 158.384C154.591 158.384 158.562 154.413 158.562 149.515C158.562 144.617 154.591 140.646 149.693 140.646C144.795 140.646 140.824 144.617 140.824 149.515C140.824 154.413 144.795 158.384 149.693 158.384Z" fill="#389CDE"/>
<path d="M149.693 46.339C154.591 46.339 158.562 42.3682 158.562 37.47C158.562 32.5718 154.591 28.601 149.693 28.601C144.795 28.601 140.824 32.5718 140.824 37.47C140.824 42.3682 144.795 46.339 149.693 46.339Z" fill="#389CDE"/>
<path d="M37.501 46.339C42.3992 46.339 46.37 42.3682 46.37 37.47C46.37 32.5718 42.3992 28.601 37.501 28.601C32.6028 28.601 28.632 32.5718 28.632 37.47C28.632 42.3682 32.6028 46.339 37.501 46.339Z" fill="#389CDE"/>
<path d="M11.8191 100.826C15.8792 99.1535 17.815 94.5066 16.1428 90.4465C14.4707 86.3863 9.82371 84.4505 5.76359 86.1227C1.70348 87.7949 -0.232329 92.4418 1.43985 96.5019C3.11202 100.562 7.75895 102.498 11.8191 100.826Z" fill="#389CDE"/>
</svg>
